<?xml version="1.0" standalone="no"?>
<!DOCTYPE svg PUBLIC "-//W3C//DTD SVG 1.1//EN" "http://www.w3.org/Graphics/SVG/1.1/DTD/svg11.dtd" >
<svg xmlns="http://www.w3.org/2000/svg">
<metadata>Generated by IcoMoon</metadata>
<defs>
<font id="product" horiz-adv-x="1024">
<font-face units-per-em="1024" ascent="960" descent="-64" />
<missing-glyph horiz-adv-x="1024" />
<glyph unicode="&#x20;" horiz-adv-x="512" d="" />
<glyph unicode="&#xe900;" glyph-name="vr-360" d="M944.538 471.636c19.848 26.636 0.39 63.916-32.022 63.916-5.664 0-3.28 0.208-64.070-12.842-21.568-4.636-35.36-25.84-30.712-47.508l11.95-55.65c5.088-23.69 30.586-38.038 53.828-28.794-10.514-8.068-28.676-18.56-58.508-29.29-14.238 14.616-32.694 26.506-43.358 30.706l-185.228 72.732v41.762c28.952 21.83 49.568 54.284 55.732 91.724h16.358c27.664 0 50.17 22.506 50.17 50.17v41.030c0 16.208-7.734 30.64-19.7 39.818v39.416c-0.002 105.412-85.762 191.174-191.174 191.174s-191.17-85.762-191.17-191.174v-39.414c-12.26-9.402-19.7-23.958-19.7-39.818 0-45.162-0.3-44.69 1.022-51.13 4.678-22.81 24.912-40.070 49.146-40.070h16.36c6.166-37.442 26.78-69.892 55.73-91.722v-41.842c-1.058-0.416-184.198-72.328-185.25-72.744-0.946-0.388-21.094-8.83-41.044-28.48-50.248 18.984-64.524 36.752-65.444 41.086 0.624 2.65 8.134 14.14 36.546 28.54 19.674 9.97 27.572 34.088 17.602 53.766-6.854 13.522-20.536 21.924-35.704 21.924-6.23 0-12.472-1.494-18.058-4.322-53.358-27.038-80.412-60.646-80.412-99.896 0-32.538 19.946-76.438 107.54-112.118-3.234-17.626-2.346 1.176-2.346-341.578 0-8.286 6.716-15 15-15h0.002c12.96 0 291.37 0 305.178 0 8.284 0 15 6.714 15 15s-6.716 15-15 15h-167.592v123.832c0 8.286-6.716 15-15 15h-107.586c0 175.576-0.386 166.718 1.024 177.194 179.126-59.204 476.028-57.372 648.81-2.46 0.934-8.238 0.73-9.696 0.73-50.964 0-8.286 6.716-15 15-15s15 6.714 15 15c0 40.344 0.472 46.756-1.844 61.044 131.622 50.716 137.016 131.004 83.194 181.982zM182.626 74.832h92.584v-108.83h-92.584v108.83zM688.672 689.594v-41.030c0-11.12-9.046-20.168-20.168-20.168-11.806 0-262.59 0-274.166 0v81.366c297.832 0 276.656 0.926 283.166-2.144 6.61-3.314 11.168-10.138 11.168-18.024zM507.76 739.764c25.892 8.476 53.688 21.23 77.536 36.482l33.94-36.482h-111.476zM364.336 628.394h-17.234c-11.12 0.002-20.168 9.050-20.168 20.17v41.030c0 8.854 5.914 17.328 15.71 19.658 0.702 0.162 1.83 0.34 2.248 0.384 1.784 0.2 1.734 0.126 19.442 0.126v-81.368zM366.56 751.664c-3.25-2.88-5.054-6.762-5.054-11.896-0.256 0-14.618 0.002-14.874-0.002v29.060h0.004c0 88.872 72.3 161.172 161.168 161.172 88.872 0 161.172-72.3 161.172-161.172v-29.064c-0.256 0.004-14.614 0.002-14.87 0.002 0 9.076 0.464 6.068-55.62 66.352-5.352 5.752-14.13 6.288-20.012 1.762 0 0-72.98-54.4-169.474-54.4-10.276 0-20.6 0.622-30.682 1.846-4.116 0.514-8.438-0.718-11.758-3.66zM393.978 598.394h227.656c-12.112-57.702-66.906-98.572-131.224-89.782-47.702 6.536-86.554 42.736-96.432 89.782zM566.414 489.132v-48.764l-58.562-51.57-58.56 51.57c0 2.232-0.1 18.502-0.1 48.764 36.702-15.704 81.026-15.492 117.222 0zM419.244 432.616c0.552-8.44-1.288-4.718 78.644-75.11 2.834-2.494 6.372-3.742 9.912-3.742 0.020 0 0.042 0.002 0.062 0.002 3.554-0.008 7.11 1.236 9.954 3.74l73.614 64.824c2.998 2.64 4.808 6.356 5.058 10.314 187.116-73.472 178.626-68.486 195.418-81.686-155.364-43.838-407.218-44.714-565.884 1.658 15.4 11.552 5.058 6.114 193.222 80zM821.976 307.726c-116.686-36.532-272.27-44.502-394.296-37.256-322.52 19.11-433.536 132.742-286.284 207.362 4.966 2.512 10.952 0.514 13.442-4.398 2.492-4.918 0.518-10.95-4.402-13.442-224.596-113.82 314.272-234.924 659.064-135.17 4.102 1.228 7.722 2.378 7.722 2.378 74.842 23.598 147.17 65.384 85.83 114.196-10.176 8.096-25.214 0.226-24.306-12.78 0.854-12.212-17.14-14.83-19.73-2.766-12.97 60.4-13.568 58.54-10.572 63.176 3.002 4.644 1.412 3.302 61.944 16.296 5.366 1.15 10.752-2.402 11.886-7.676 1.054-4.91-1.722-9.858-6.46-11.514-11.366-3.97-13.63-19.070-3.982-26.214 54.902-40.674 56.852-106.036-89.856-152.192zM646.37 682.978h-214.166c-8.284 0-15-6.714-15-15s6.716-15 15-15h214.164c8.284 0 15 6.714 15 15s-6.714 15-14.998 15zM848.188 173.6c-8.284 0-15-6.716-15-15v-53.766h-107.582c-8.284 0-15-6.714-15-15v-123.832h-167.798c-8.284 0-15-6.714-15-15s6.716-15 15-15c14.446 0 293.158 0 305.382 0 8.284 0 15 6.716 15 15 0 20.898 0 187.51 0 207.598-0.002 8.284-6.718 15-15.002 15zM833.186-33.998h-92.582v108.83h92.582v-108.83z" />
<glyph unicode="&#xe901;" d="M1024 448c0-282.77-229.23-512-512-512s-512 229.23-512 512c0 282.77 229.23 512 512 512s512-229.23 512-512z" />
<glyph unicode="&#xe902;" d="M512 889.379c243.377 0 441.379-198.003 441.379-441.379s-198.003-441.379-441.379-441.379-441.379 198.003-441.379 441.379 198.003 441.379 441.379 441.379zM512 960c-282.765 0-512-229.235-512-512s229.235-512 512-512 512 229.235 512 512-229.235 512-512 512v0z" />
<glyph unicode="&#xe903;" d="M512 856.205c-9.746 0-17.655-7.892-17.655-17.655v-17.655c0-9.763 7.91-17.655 17.655-17.655s17.655 7.892 17.655 17.655v17.655c0 9.763-7.91 17.655-17.655 17.655z" />
<glyph unicode="&#xe904;" d="M512 97.033c-9.746 0-17.655-7.892-17.655-17.655v-17.655c0-9.763 7.91-17.655 17.655-17.655s17.655 7.892 17.655 17.655v17.655c0 9.763-7.91 17.655-17.655 17.655z" />
<glyph unicode="&#xe905;" d="M900.414 467.791h-17.655c-9.746 0-17.655-7.892-17.655-17.655s7.91-17.655 17.655-17.655h17.655c9.746 0 17.655 7.892 17.655 17.655s-7.91 17.655-17.655 17.655z" />
<glyph unicode="&#xe906;" d="M141.241 467.791h-17.655c-9.746 0-17.655-7.892-17.655-17.655s7.91-17.655 17.655-17.655h17.655c9.746 0 17.655 7.892 17.655 17.655s-7.91 17.655-17.655 17.655z" />
<glyph unicode="&#xe907;" d="M774.162 737.28l-12.482-12.482c-6.903-6.903-6.903-18.061 0-24.964 3.443-3.443 7.962-5.173 12.482-5.173s9.039 1.73 12.482 5.173l12.482 12.482c6.903 6.903 6.903 18.061 0 24.964s-18.061 6.903-24.964 0z" />
<glyph unicode="&#xe908;" d="M237.356 200.457l-12.482-12.482c-6.903-6.903-6.903-18.061 0-24.964 3.443-3.443 7.962-5.173 12.482-5.173s9.039 1.73 12.482 5.173l12.482 12.482c6.903 6.903 6.903 18.061 0 24.964s-18.079 6.886-24.964 0z" />
<glyph unicode="&#xe909;" d="M786.644 200.457c-6.903 6.903-18.061 6.903-24.964 0s-6.903-18.061 0-24.964l12.482-12.482c3.443-3.443 7.962-5.173 12.482-5.173s9.039 1.73 12.482 5.173c6.903 6.903 6.903 18.061 0 24.964l-12.482 12.482z" />
<glyph unicode="&#xe90a;" d="M249.838 737.28c-6.903 6.903-18.061 6.903-24.964 0s-6.903-18.061 0-24.964l12.482-12.482c3.443-3.443 7.962-5.173 12.482-5.173s9.039 1.73 12.482 5.173c6.903 6.903 6.903 18.061 0 24.964l-12.482 12.482z" />
<glyph unicode="&#xe90b;" d="M459.034 450.136h-141.241" />
<glyph unicode="&#xe90c;" d="M512 503.102v194.207" />
<glyph unicode="&#xe90d;" d="M564.966 450.136c0-29.252-23.713-52.966-52.966-52.966s-52.966 23.713-52.966 52.966c0 29.252 23.713 52.966 52.966 52.966s52.966-23.713 52.966-52.966z" />
<glyph unicode="&#xe90e;" glyph-name="water" d="M505.958 507.238c-26.163-210.688-159.795-248.166-159.795-394.65 0-90.419 75.93-163.789 165.837-163.789s165.786 73.421 165.786 163.789c0 146.483-133.632 183.962-159.795 394.65-0.819 6.298-11.213 6.298-12.032 0zM198.81 968.038c-26.163-210.688-159.795-248.115-159.795-394.65 0-90.368 75.878-163.789 165.786-163.789s165.786 73.421 165.786 163.789c0 146.483-133.632 183.962-159.795 394.65-0.768 6.298-11.213 6.298-11.981 0zM813.21 968.038c-26.163-210.688-159.795-248.166-159.795-394.65 0-90.368 75.878-163.789 165.786-163.789s165.786 73.421 165.786 163.789c0 146.483-133.632 183.962-159.795 394.65-0.819 6.298-11.213 6.298-11.981 0z" />
<glyph unicode="&#xe90f;" glyph-name="droplet" d="M864.626 486.838c-65.754 183.44-205.11 348.15-352.626 473.162-147.516-125.012-286.87-289.722-352.626-473.162-40.664-113.436-44.682-236.562 12.584-345.4 65.846-125.14 198.632-205.438 340.042-205.438s274.196 80.298 340.040 205.44c57.27 108.838 53.25 231.962 12.586 345.398zM738.764 201.044c-43.802-83.252-132.812-137.044-226.764-137.044-55.12 0-108.524 18.536-152.112 50.652 13.242-1.724 26.632-2.652 40.112-2.652 117.426 0 228.668 67.214 283.402 171.242 44.878 85.292 40.978 173.848 23.882 244.338 14.558-28.15 26.906-56.198 36.848-83.932 22.606-63.062 40.024-156.34-5.368-242.604z" />
<glyph unicode="&#xe910;" glyph-name="gaming" d="M996.106 111.699l-25.245-25.245-136.743 136.743 65.623 65.623c3.065 3.065 4.787 7.22 4.787 11.556s-1.721 8.488-4.787 11.556l-46.217 46.217c-6.381 6.379-16.728 6.379-23.108 0l-44.914-44.914-575.743 641.34c-3.098 3.453-7.521 5.425-12.159 5.425h-181.259c-0.131 0-0.257-0.017-0.388-0.020-0.405-0.009-0.81-0.022-1.214-0.061-0.288-0.028-0.566-0.081-0.85-0.122-0.244-0.037-0.488-0.065-0.732-0.113-0.298-0.059-0.59-0.139-0.885-0.216-0.222-0.057-0.447-0.105-0.667-0.172-0.283-0.085-0.556-0.19-0.832-0.29-0.227-0.083-0.455-0.157-0.68-0.248-0.255-0.107-0.499-0.229-0.747-0.349-0.235-0.111-0.473-0.214-0.704-0.338-0.233-0.126-0.455-0.268-0.684-0.403-0.231-0.139-0.464-0.27-0.691-0.42-0.244-0.163-0.473-0.344-0.708-0.521-0.192-0.144-0.39-0.277-0.577-0.431-0.39-0.32-0.763-0.658-1.12-1.013-0.495-0.497-0.837-0.874-1.159-1.266-0.155-0.19-0.29-0.388-0.436-0.584-0.174-0.231-0.353-0.46-0.516-0.702-0.155-0.233-0.29-0.473-0.431-0.712-0.131-0.218-0.268-0.434-0.388-0.658-0.131-0.244-0.242-0.495-0.359-0.745-0.111-0.233-0.229-0.464-0.329-0.704-0.1-0.244-0.181-0.49-0.27-0.739-0.092-0.255-0.19-0.508-0.268-0.769-0.076-0.251-0.131-0.503-0.194-0.756-0.068-0.266-0.142-0.525-0.194-0.795-0.059-0.294-0.094-0.593-0.137-0.889-0.033-0.231-0.076-0.458-0.1-0.691-0.052-0.538-0.081-1.078-0.081-1.621v-181.252c0-4.641 1.972-9.059 5.425-12.159l641.338-575.743-44.912-44.912c-6.381-6.384-6.381-16.728 0-23.108l46.217-46.219c3.063-3.065 7.22-4.787 11.554-4.787s8.49 1.721 11.554 4.784l65.625 65.625 136.743-136.743-25.245-25.245c-6.381-6.384-6.381-16.728 0-23.11 3.19-3.19 7.373-4.784 11.554-4.784s8.364 1.595 11.554 4.784l147.805 147.805c6.381 6.384 6.381 16.728 0 23.11-6.377 6.379-16.724 6.379-23.105 0zM32.681 769.691v134.519l637.233-637.233c3.19-3.19 7.373-4.784 11.554-4.784s8.364 1.595 11.554 4.784c6.381 6.384 6.381 16.728 0 23.11l-637.231 637.233h134.519l572.050-637.224-92.454-92.454-637.224 572.050zM659.622 94.92l-23.11 23.11 205.458 205.456 23.11-23.108-65.604-65.604c-0.041-0.041-74.207-74.207-74.207-74.207-0.041-0.041-65.647-65.647-65.647-65.647zM759.91 148.992l51.098 51.098 136.743-136.743-51.098-51.098-136.743 136.743zM545.005 630.202c6.717-6.031 17.046-5.473 23.075 1.244l265.61 295.873h134.519l-352.676-352.676c-6.381-6.384-6.381-16.728 0-23.11 3.19-3.19 7.373-4.784 11.554-4.784s8.364 1.595 11.554 4.784l352.679 352.676v-134.519l-304.4-273.269c-6.717-6.031-7.273-16.36-1.244-23.075 3.227-3.595 7.687-5.425 12.164-5.425 3.889 0 7.789 1.379 10.911 4.181l309.825 278.138c3.451 3.1 5.425 7.519 5.425 12.159v181.252c0 0.54-0.028 1.081-0.081 1.621-0.022 0.233-0.068 0.46-0.1 0.691-0.041 0.296-0.078 0.595-0.135 0.891-0.052 0.268-0.126 0.529-0.194 0.793-0.063 0.253-0.12 0.505-0.194 0.756-0.078 0.259-0.176 0.51-0.268 0.765-0.089 0.248-0.17 0.499-0.272 0.745-0.098 0.237-0.216 0.466-0.325 0.699-0.118 0.251-0.229 0.503-0.359 0.747-0.12 0.224-0.257 0.44-0.388 0.658-0.142 0.237-0.277 0.479-0.434 0.712-0.161 0.242-0.342 0.471-0.516 0.702-0.146 0.194-0.281 0.394-0.436 0.584-0.322 0.392-0.665 0.769-1.022 1.131-0.497 0.49-0.869 0.83-1.259 1.15-0.187 0.155-0.386 0.288-0.58 0.434-0.233 0.174-0.462 0.355-0.704 0.519-0.227 0.15-0.462 0.283-0.693 0.42-0.227 0.135-0.449 0.277-0.682 0.403-0.231 0.124-0.468 0.227-0.704 0.338-0.248 0.118-0.495 0.242-0.749 0.346-0.224 0.092-0.453 0.168-0.68 0.248-0.277 0.1-0.549 0.205-0.83 0.29-0.22 0.068-0.444 0.115-0.669 0.172-0.294 0.076-0.584 0.157-0.885 0.216-0.244 0.048-0.488 0.074-0.732 0.111-0.283 0.044-0.562 0.094-0.85 0.122-0.403 0.039-0.808 0.052-1.214 0.061-0.131 0.004-0.257 0.022-0.388 0.022h-181.259c-4.639 0-9.061-1.972-12.159-5.425l-270.48-301.298c-6.029-6.715-5.471-17.049 1.244-23.075zM452.159 285.674l-98.062-88.033-92.454 92.454 81.648 90.951c6.029 6.715 5.471 17.046-1.244 23.075-6.717 6.031-17.046 5.475-23.075-1.244l-80.471-89.639-44.914 44.914c-6.381 6.379-16.728 6.379-23.108 0l-46.217-46.217c-3.065-3.065-4.787-7.22-4.787-11.556s1.721-8.488 4.787-11.556l65.623-65.623-136.745-136.743-25.245 25.245c-6.381 6.379-16.728 6.379-23.108 0-6.381-6.384-6.381-16.728 0-23.11l147.805-147.805c3.19-3.19 7.373-4.784 11.554-4.784s8.364 1.595 11.554 4.784c6.381 6.384 6.381 16.728 0 23.11l-25.243 25.243 136.743 136.743 65.625-65.625c3.063-3.063 7.22-4.784 11.554-4.784s8.49 1.721 11.554 4.787l46.217 46.219c6.381 6.381 6.381 16.726 0 23.108l-44.912 44.912 96.753 86.855c6.715 6.029 7.273 16.36 1.244 23.075-6.026 6.719-16.36 7.275-23.075 1.246zM127.346 12.249l-51.098 51.098 136.743 136.743 51.098-51.098-136.743-136.743zM364.378 94.92l-65.606 65.606c-0.041 0.041-74.207 74.207-74.207 74.207-0.041 0.041-65.645 65.645-65.645 65.645l23.11 23.108 205.458-205.456-23.11-23.11zM330.985 266.983c3.19-3.19 7.373-4.784 11.554-4.784s8.364 1.595 11.554 4.784l54.377 54.379c6.381 6.384 6.381 16.728 0 23.11-6.381 6.379-16.728 6.379-23.108 0l-54.377-54.379c-6.384-6.381-6.384-16.726 0-23.11z" />
<glyph unicode="&#xe911;" glyph-name="HeadSet" horiz-adv-x="1110" d="M0 328.626c1.433 16.478 2.559 32.981 4.375 49.408 2.149 19.369 3.608 38.943 7.676 57.928 10.235 47.105 40.196 80.777 77.783 108.385 52.401 38.38 112.095 55.139 176.547 57.391 14.789 0.512 29.527 1.765 46.056 2.789 0-9.493 0-18.346 0-27.224 0.307-44.93 33.851-79.062 78.73-79.318 46.977-0.358 93.954 0 140.931 0h13.74v-387.841c-44.674-9.544-79.037-32.111-76.453-83.105 2.328-45.57 35.002-65.885 76.76-73.996v-16.964c-4.503 0-9.006-0.179-13.51 0-98.892 4.375-197.861 7.215-296.599 13.714-65.271 4.299-122.816 30.704-171.302 75.25-36 33.109-55.241 74.201-58.363 123.020-1.484 24.103-4.196 48.077-6.371 72.103zM164.829 487.8c0.205-39.531 33.263-74.738 69.749-74.559s69.084 35.617 69.084 75.276c0 35.821-30.525 63.506-69.775 63.455s-69.237-28.12-69.058-64.171zM82.44 264.864c0-32.546 22.772-58.542 53.732-59.591 27.838-0.947 50.764 10.235 66.96 33.083 13.459 19.062 12.537 40.759-1.714 59.361-11.54 14.943-27.019 23.514-45.339 27.224-39.352 7.906-73.638-19.958-73.613-60.077zM294.936 28.214c-0.444 17.072-6.237 32.709-15.754 45.39l0.147-0.204c-12.077 15.966-27.992 22.081-47.617 17.348-22.158-5.322-38.994-18.371-51.173-37.228-10.951-17.066-9.441-37.049 3.301-53.502 12.307-15.864 29.22-24.051 48.614-28.145 35.668-7.19 62.354 14.431 62.508 56.316zM378.707 447.834c-33.953-0.154-59.489-22.593-57.467-52.478s16.989-51.659 44.009-64.504c17.169-8.162 33.902-5.424 48.896 5.757 16.796 12.224 27.705 31.66 28.144 53.663l0.001 0.069c1.382 32.674-26.661 57.723-63.608 57.544zM85.459 161.264c-4.913 11.898-7.829 24.103-14.482 33.749-9.621 13.919-26.917 13.177-38.098 0.435-14.815-16.887-14.891-50.585 0-67.472 11.514-13.177 28.99-13.586 38.815 0.896 6.090 9.134 8.879 20.623 13.766 32.393zM85.306 372.251c-4.554 11.642-7.062 23.207-13.126 32.469-10.235 15.352-28.58 15.045-40.196 0.768-13.868-17.041-13.714-48.614 0.281-65.706 11.437-13.868 29.322-14.38 39.429 0.563 6.192 9.134 8.955 20.597 13.612 31.906zM564.312-63.923v16.657c44.162 9.365 76.606 31.267 77.297 81.161 0.512 36.845-22.772 58.542-77.374 76.529v387.432h152.496c47.463 0 81.416 33.851 81.416 81.135 0 7.906 0 15.812 0 25.433 15.352-0.896 29.86-2.124 44.444-2.559 61.638-1.893 119.592-16.503 170.355-52.504 19.426-14.24 36.474-29.68 51.801-46.701l0.268-0.302c25.97-28.273 35.258-63.685 39.020-101.246 8.418-84.436 7.471-168.718 0.281-253.307-5.322-62.534-35.412-108.717-84.794-144.283-50.482-36.359-107.464-53.476-169.204-56.163q-133.229-5.706-266.433-11.233c-6.115-0.256-12.23-0.051-19.574-0.051zM875.828 551.997c-38.994 0-69.084-28.145-69.084-64.222 0.205-39.506 33.263-74.943 69.749-74.559s69.237 35.975 69.084 75.352c-0.179 35.924-30.55 63.557-69.749 63.429zM966.686 326.425c-23.853-1.168-44.688-13.135-57.856-31.080l-0.149-0.213c-15.352-20.776-14.303-44.828 2.559-64.427 12.614-14.559 28.964-22.311 47.719-25.152 34.542-5.271 66.065 20.469 68.828 55.83s-22.516 64.862-61.101 65.041zM812.527 24.274l2.968-1.023c0-29.092 15.096-49.203 41.45-51.838 28.836-2.891 53.45 7.241 70.952 30.704 12.128 16.299 12.435 34.414 1.638 51.685-10.487 16.914-26.5 29.548-45.474 35.485l-0.582 0.157c-23.488 7.369-43.727 0.486-55.369-21.237-7.267-13.433-10.542-29.169-15.582-43.932zM731.418 447.885c-24.41 0-46.056-11.156-56.521-29.885-11.821-21.16-7.881-41.936 3.608-61.612 20.469-35.207 59.617-39.915 87.941-10.593 6.035 6.295 11.161 13.529 15.122 21.447l0.229 0.506c20.495 41.655-3.966 80.035-50.38 80.137zM1091.472 161.315c-4.324 11.233-6.832 22.823-12.793 32.111-10.235 15.838-29.373 15.198-40.939 0.179-12.998-16.938-12.972-47.054 0-64.12 11.488-15.045 30.499-15.582 40.939 0.281 5.859 9.058 8.341 20.265 12.793 31.599zM1091.472 371.944c-4.299 11.565-6.576 22.823-12.307 31.906-10.388 16.452-29.783 16.12-41.553 0.716-12.921-16.913-12.793-47.13 0.307-63.966 11.258-14.559 29.911-15.352 40.145-0.23 6.192 9.134 8.904 20.623 13.407 31.625zM433.743 629.217c0 36.717 0 72.794 0 108.871q0 82.9 0 165.801c0 25.97 15.659 44.904 41.092 49.229 24.139 4.373 51.923 6.873 80.291 6.873s56.151-2.5 83.142-7.293l-2.852 0.42c24.23-4.171 40.939-22.516 41.118-45.877 0.23-91.011 0-182.048 0-273.060 0-1.433-0.256-2.84-0.461-4.938zM329.657 606.061c67.143 4.337 145.582 6.809 224.599 6.809s157.456-2.472 235.245-7.343l-10.646 0.533c8.060-43.958-4.81-79.984-48.077-89.886-3.518-0.694-7.564-1.091-11.702-1.091-0.807 0-1.61 0.015-2.409 0.045l0.115-0.003q-160.479 0-320.983 0c-41.118 0-66.065 25.049-66.167 66.167 0.026 7.932 0.026 15.787 0.026 24.768zM127.703 588.099c61.152 126.781 156.308 210.936 288.719 255.712 0-13.586 0-25.382 0-37.203 0-33.953-0.256-67.932 0.205-101.886 0-7.676-2.559-11.258-9.339-14.559-32.638-16.61-60.626-36.993-84.917-61.096l0.021 0.021c-4.477-4.023-10.246-6.688-16.614-7.308l-0.12-0.009c-44.904-3.812-90.372-3.147-133.818-17.68-14.021-4.682-27.71-9.979-44.137-15.992zM694.010 843.76c132.564-44.776 227.439-128.854 288.693-255.866-14.303 5.399-25.587 9.851-36.921 13.894-31.983 11.36-65.271 15.352-98.892 17.143-15.864 0.896-33.083-1.612-47.233 3.812s-24.077 19.65-36.896 28.555c-20.111 13.97-41.169 26.584-61.587 40.12-3.070 2.021-6.857 6.013-6.883 9.109-0.409 47.105-0.281 93.979-0.281 143.234zM556.713 92.308c20.648-0.819 39.838-7.881 54.295-24.896 22.209-26.175 16.657-62.789-12.333-83.156-12.153-8.445-27.22-13.492-43.466-13.492-17.595 0-33.808 5.92-46.754 15.877l0.181-0.134c-30.499 23.796-30.346 66.525 0.409 90.295 13.663 10.49 29.348 15.173 47.668 15.505zM555.919-7.172c23.463 0.307 42.832 17.911 42.653 38.764-0.179 21.288-20.469 38.994-44.034 38.585s-42.806-18.039-42.678-38.968c0.077-21.186 20.137-38.687 44.060-38.38zM234.373 543.348c33.979 0 60.384-23.923 60.589-54.832 0.205-34.951-29.015-66.934-60.87-66.525s-60.512 31.395-60.563 65.732c-0.051 31.625 26.226 55.625 60.845 55.625zM91.063 264.966c0 34.747 29.348 58.568 63.352 51.506 14.504-2.687 27.051-9.689 36.594-19.603l0.021-0.021c16.222-17.45 17.245-39.454 2.073-57.877-12.147-14.965-30.354-24.604-50.827-25.15l-0.090-0.002c-28.964-1.331-51.122 21.211-51.122 51.148zM288.821 25.374c-2.354-33.698-24.614-51.634-56.649-44.495-14.763 3.301-28.145 9.518-38.38 20.776-14.584 15.761-15.608 35.233-2.559 52.171 9.572 13.014 22.965 22.722 38.513 27.518l0.532 0.141c19.216 5.501 35.028 0.461 44.444-17.041 6.55-12.051 9.544-25.97 14.098-39.071zM379.602 439.211c30.883 0 54.397-20.648 54.167-47.31-0.256-29.68-23.642-56.777-48.973-56.777-27.275 0-55.421 31.906-55.113 62.457 0.256 24.384 21.058 41.732 49.919 41.629zM76.299 161.469c-4.094-9.697-6.704-19.625-12.128-27.659-6.576-9.748-16.862-9.032-24.717-0.128-12.051 13.638-12.154 41.681-0.23 55.574 8.085 9.441 18.627 10.004 25.407-0.307 5.143-7.829 7.548-17.45 11.667-27.48zM27.992 372.839c3.864 9.595 6.218 19.19 11.258 27.096 6.499 10.235 17.706 9.697 25.587 0.614 11.949-13.894 11.923-41.681 0-55.574-7.855-9.134-19.011-9.595-25.587 0.588-5.066 7.881-7.369 17.527-11.258 27.275zM877.056 543.323c33.902-0.23 60.026-24.461 59.873-55.497-0.179-35.079-29.399-66.346-61.612-65.937-31.625 0.409-59.949 31.906-59.821 66.525 0.128 31.369 26.789 55.139 61.561 54.909zM970.089 317.777c27.173 0 48.307-21.007 49.229-48.768 0.972-29.45-19.011-53.348-46.849-55.088-1.585-0.137-3.43-0.216-5.293-0.216-19.129 0-36.331 8.255-48.236 21.397l-0.049 0.055c-15.992 17.092-16.401 38.789-1.817 57.084 12.843 15.215 31.736 24.972 52.921 25.533l0.095 0.002zM824.22 28.649c0.45 15.406 5.858 29.467 14.673 40.733l-0.115-0.152q15.122 18.832 38.559 12.921c18.831-4.863 34.39-16.463 44.291-32.016l0.178-0.299c9.365-14.124 9.237-29.092-0.819-42.525-15.736-21.007-37.715-30.167-63.557-27.199-21.8 2.482-33.544 19.523-33.211 48.538zM731.776 439.134c39.224 0 59.079-30.704 42.883-66.525-1.982-4.369-4.091-8.088-6.488-11.595l0.168 0.26c-14.968-21.979-37.919-31.19-57.467-23.258-21.749 8.827-37.817 37.945-33.8 61.408 3.761 21.825 24.103 38.38 49.254 39.736 1.868 0.051 3.684-0.026 5.45-0.026zM1082.644 161.699c-4.068-9.774-6.627-19.702-12-27.761-6.55-9.851-16.708-9.262-24.717-0.435-12.384 13.689-12.282 42.806 0.205 56.29 8.009 8.699 18.090 9.109 24.717-0.819 5.194-7.676 7.65-17.271 11.795-27.275zM1034.337 372.174c3.761 9.774 5.962 19.446 10.925 27.403 6.678 10.695 18.192 10.235 26.201 0.512 11.488-13.945 11.488-40.811 0-54.755-7.676-9.39-18.857-10.235-25.587-0.128-5.117 7.778-7.548 17.399-11.54 26.968zM576.875 31.208c-0.23-10.618-10.439-19.318-22.26-18.96s-21.569 9.621-21.007 20.239c0.537 10.235 10.235 18.474 21.723 18.422 11.872-0.154 21.774-9.186 21.544-19.702z" />
<glyph unicode="&#xe912;" glyph-name="vr-phone" d="M81.702 453.447c-9.026 0-16.34-7.316-16.34-16.34v-239.66c0-9.024 7.314-16.34 16.34-16.34s16.34 7.316 16.34 16.34v239.66c0 9.024-7.314 16.34-16.34 16.34zM81.702 584.17c-9.026 0-16.34-7.316-16.34-16.34v-65.362c0-9.024 7.314-16.34 16.34-16.34s16.34 7.316 16.34 16.34v65.362c0 9.024-7.314 16.34-16.34 16.34zM702.638 584.17c-9.026 0-16.34-7.316-16.34-16.34v-370.383c0-9.024 7.314-16.34 16.34-16.34s16.34 7.316 16.34 16.34v370.383c0 9.024-7.314 16.34-16.34 16.34zM942.298 584.17h-157.957v49.021c0 81.092-65.972 147.064-147.064 147.064h-490.213c-81.092 0-147.064-65.972-147.064-147.064v-435.745c0-45.052 36.65-81.702 81.702-81.702h408.447c0.12 0 212.489 0 212.489 0 45.052 0 81.702 36.65 81.702 81.702v354.043h157.957c27.029 0 49.021-21.99 49.021-49.021v-239.66c0-27.031-21.992-49.021-49.021-49.021h-108.936c-9.026 0-16.34-7.316-16.34-16.34s7.314-16.34 16.34-16.34h108.936c45.052 0 81.702 36.65 81.702 81.702v239.66c0 45.052-36.65 81.702-81.702 81.702zM147.064 747.574h490.213c63.070 0 114.383-51.311 114.383-114.383-13.665 10.238-30.642 16.34-49.021 16.34h-620.936c-18.38 0-35.356-6.103-49.021-16.384 0 63.115 51.313 114.427 114.383 114.427zM315.056 148.426l8.785 35.141c2.527 10.116 14.327 19.327 24.752 19.327h87.149c10.425 0 22.225-9.214 24.752-19.33l8.785-35.138h-154.223zM751.66 197.447c0-27.031-21.992-49.021-49.021-49.021h-199.667l-10.767 43.067c-6.181 24.718-30.981 44.082-56.459 44.082h-87.149c-25.478 0-50.278-19.364-56.459-44.082l-10.767-43.067h-199.667c-27.029 0-49.021 21.99-49.021 49.021v370.383c0 27.031 21.992 49.021 49.021 49.021h620.936c27.029 0 49.021-21.99 49.021-49.021v-370.383zM468.426 584.17h-152.511c-9.026 0-16.34-7.316-16.34-16.34s7.314-16.34 16.34-16.34h152.511c9.026 0 16.34 7.316 16.34 16.34s-7.314 16.34-16.34 16.34zM936.851 388.985c0 27.031-21.992 49.021-49.021 49.021s-49.021-21.99-49.021-49.021 21.992-49.021 49.021-49.021 49.021 21.99 49.021 49.021zM871.489 388.985c0 9.011 7.329 16.34 16.34 16.34s16.34-7.329 16.34-16.34-7.329-16.34-16.34-16.34-16.34 7.329-16.34 16.34z" />
<glyph unicode="&#xe913;" glyph-name="vr-headset" horiz-adv-x="1506" d="M916.187 960c6.471-3.274 12.039-6.873 17.185-10.979l-0.198 0.152c3.788-3.59 6.37-8.417 7.099-13.832l0.013-0.12c0.951-14.224 0.317-28.539 0.317-43.805-56.187 7.482-121.148 11.753-187.108 11.753-66.845 0-132.665-4.386-197.188-12.886l7.583 0.817c0.322 17.448 1.531 34.229 3.588 50.746l-0.236-2.32c2.038 11.416 12.593 16.625 23.058 20.475zM0 558.78c6.795 18.437 20.249 25.776 39.456 24.281 7.339-0.544 14.768 0 22.65 0v-312.568c-26.093-8.426-49.83 0-62.197 22.65zM125.707 379.665c0 66.092-0.634 132.185 0 198.277 0.679 50.509 22.152 90.599 64.869 118.64 64.507 41.857 135.084 69.444 208.062 91.052 54.822 16.332 119.949 29.406 186.813 36.697l5.076 0.449c49.289 5.879 106.374 9.234 164.243 9.234 24.255 0 48.372-0.589 72.338-1.754l-3.378 0.131c127.202-5.527 251.142-27.859 370.189-73.839 47.293-18.12 93.453-39.773 134.042-70.577 32.333-24.061 53.052-62.164 53.052-105.106 0-0.426-0.002-0.852-0.006-1.277v0.065q1.585-202.49 0-405.025c0.001-0.165 0.001-0.359 0.001-0.554 0-41.541-19.92-78.43-50.729-101.634l-0.324-0.234q-73.884-57.621-149.942-112.434c-34.428-24.734-74.11-31.166-114.971-21.381-82.31 19.705-164.166 41.404-246.385 61.426-19.719 4.796-42.357 7.546-65.638 7.546-27.473 0-54.052-3.83-79.231-10.986l2.039 0.496c-77.734-20.113-155.559-40.045-233.701-58.482-10.476-2.808-22.504-4.421-34.909-4.421-31.955 0-61.41 10.704-84.975 28.723l0.337-0.248c-47.927 35.651-96.081 71.438-143.509 107.949-32.406 23.992-53.185 62.092-53.185 105.044 0 0.305 0.001 0.609 0.003 0.913v-0.047c-0.679 67.134-0.181 134.268-0.181 201.357zM232.252 388.318h-0.634c0-48.924-0.226-97.847 0-146.771 0.5-10.93 2.123-21.243 4.761-31.142l-0.231 1.018c0.913-6.419 5.883-11.45 12.193-12.447l0.083-0.011c0.67-0.104 1.443-0.163 2.23-0.163 6.263 0 11.65 3.749 14.040 9.125l0.039 0.098c4.268 8 7.788 17.276 10.081 27.025l0.156 0.789c17.169 91.551 33.612 183.192 50.781 274.743 3.197 19.986 16.62 36.222 34.639 43.356l0.378 0.132c8.743 3.624 17.44 7.293 26.274 10.736 104.733 40.996 214.132 57.44 325.841 61.155 92.185 3.080 183.781-5.391 274.969-17.35 74.337-9.739 148.311-22.061 222.557-32.661 6.325-0.989 13.621-1.553 21.048-1.553 6.249 0 12.405 0.4 18.444 1.175l-0.715-0.075c12.684 1.676 17.169 12.186 9.966 22.65-5.565 8.273-12.631 15.094-20.864 20.216l-0.291 0.168c-77.010 45.3-161.629 70.079-248.56 87.202-64.711 12.864-139.336 20.49-215.647 21.017l-0.433 0.002c-6.057 0.1-13.205 0.157-20.366 0.157-59.017 0-117.128-3.876-174.093-11.388l6.692 0.721c-70.396-9.231-133.866-24.716-194.47-46.247l6.567 2.035c-47.612-15.961-88.239-34.037-126.787-55.409l3.844 1.955c-22.65-12.729-38.052-30.849-40.77-57.802-0.725-7.882-1.767-15.81-1.767-23.737-0.045-49.286 0.045-99.025 0.045-148.719zM1443.928 269.27v314.425c0.206 0 0.45 0.001 0.695 0.001 13.767 0 27.353-0.774 40.717-2.28l-1.639 0.15c13.59-2.129 22.423-14.858 22.65-29.128s0-28.176 0-42.265q0-102.559 0-205.072c0-24.099-11.642-35.741-35.741-35.832z" />
<glyph unicode="&#xe914;" horiz-adv-x="716" d="M665.428 652.684h51.052v-204.679h-50.991v-4.873c0-66.664 0.184-133.337-0.072-200.001-0.164-41.849-13.881-78.702-42.893-109.28-17.208-18.253-39.355-31.671-64.305-38.122l-0.936-0.205c-2.52-0.535-4.588-2.13-5.751-4.285l-0.022-0.045c-16.379-28.172-32.902-56.242-49.373-84.353q-19.757-33.782-39.443-67.564c-1.249-2.15-2.498-3.337-5.303-3.327q-124.953 0.143-249.906 0.072h-2.518c-2.846 4.791-5.733 9.602-8.568 14.444q-41.276 70.441-82.49 140.913c-1.165 2.072-3.066 3.614-5.341 4.283l-0.064 0.016c-42.996 14.578-75.314 41.419-94.662 82.92-9.428 20.228-13.728 41.726-13.738 63.981q-0.113 205.375 0 410.761c0 62.876 37.16 118.105 95.204 141.916 3.542 1.454 7.033 3.225 10.728 4.095 4.689 1.024 7.238 3.89 9.531 7.842q43.262 74.352 86.759 148.57c1.72 2.948 3.522 4.218 7.166 4.207q123.418-0.184 246.835 0c3.45 0 5.119-1.147 6.818-4.095q34.253-58.781 68.762-117.419c6.593-11.261 13.257-22.44 19.676-33.782 1.215-2.193 3.233-3.817 5.647-4.489l0.065-0.015c26.452-8.794 49.578-22.931 68.445-43.579 25.746-28.172 38.481-61.627 39.709-99.627 0.010-1.147-0.020-2.436-0.020-4.279zM102.514 448.384q0-101.531 0-203.052c0-2.559 0-5.119 0.205-7.668 1.566-16.973 8.773-30.558 23.975-39.136 8.661-4.914 18.201-6.449 28.111-6.449q178.298 0 356.597 0c0.635 0 1.28 0 1.914 0 14.967 0.358 28.162 4.985 38.164 16.594 8.876 10.309 11.742 22.726 11.742 36.014q0 202.099 0 404.189c0.005 0.369 0.008 0.804 0.008 1.24 0 3.743-0.215 7.436-0.633 11.067l0.041-0.443c-1.751 13.943-7.647 25.654-19.317 33.926-9.52 6.756-20.351 9.152-31.888 9.142q-178.677 0-357.365 0c-0.768 0-1.536 0-2.303 0-18.324-0.717-33.25-7.565-42.688-23.985-4.965-8.64-6.541-18.15-6.531-28.039q0.051-101.674-0.031-203.4z" />
<glyph unicode="&#xe915;" horiz-adv-x="716" d="M102.514 448.384q0 101.715 0 203.441c0 9.889 1.566 19.389 6.531 28.039 9.439 16.379 24.374 23.269 42.688 23.985 0.768 0 1.536 0 2.303 0q178.677 0 357.365 0c11.537 0 22.368-2.395 31.888-9.142 11.67-8.272 17.567-19.993 19.317-33.926 0.377-3.188 0.592-6.881 0.592-10.624 0-0.436-0.003-0.871-0.009-1.306l0.001 0.066q0-202.099 0-404.189c0-13.308-2.866-25.705-11.742-36.014-9.991-11.609-23.187-16.236-38.164-16.594-0.635 0-1.28 0-1.914 0q-178.298 0-356.597 0c-9.879 0-19.389 1.515-28.070 6.419-15.202 8.589-22.409 22.173-23.975 39.136-0.235 2.539-0.205 5.119-0.205 7.668q-0.020 101.521-0.010 203.041zM153.576 499.344c0.072-56.652 46.067-102.698 102.37-102.606 56.611 0.102 102.493 46.005 102.37 102.462-0.006 56.533-45.836 102.36-102.37 102.36-0.025 0-0.050 0-0.076 0h0.004c-56.304 0-102.37-46.067-102.299-102.217zM435.043 396.738c-42.403 0-76.778-34.375-76.778-76.778s34.375-76.778 76.778-76.778v0c42.453-0.061 76.972 34.632 76.87 77.259-0.072 42.125-34.57 76.378-76.87 76.297zM307.080 294.368c-0.012 28.287-22.907 51.222-51.178 51.298h-0.007c-27.896 0.051-51.062-23.054-51.185-51.001-0.082-28.213 22.982-51.472 51.042-51.482 0.015 0 0.033 0 0.051 0 28.305 0 51.258 22.911 51.328 51.199v0.007zM409.625 601.561c0.075-28.238 22.947-51.11 51.178-51.185h0.007c27.865 0 51.021 23.146 51.073 51.093 0.061 28.172-23.105 51.451-51.185 51.4-28.232-0.116-51.073-23.029-51.073-51.277 0-0.011 0-0.022 0-0.033v0.002zM460.666 473.086c0.003 0.154 0.005 0.336 0.005 0.518 0 13.938-11.142 25.274-25.006 25.586l-0.029 0.001c-13.953 0.45-25.593-10.8-25.992-25.152-0.003-0.152-0.005-0.332-0.005-0.512 0-14.092 11.424-25.516 25.516-25.516 13.912 0 25.224 11.134 25.51 24.977v0.027z" />
<glyph unicode="&#xe916;" horiz-adv-x="716" d="M153.576 499.344c-0.072 56.15 45.995 102.217 102.299 102.217 0.039 0 0.086 0 0.133 0 56.538 0 102.37-45.833 102.37-102.37v0c0.072-56.467-45.811-102.37-102.37-102.462-56.406-0.082-102.36 45.975-102.432 102.616z" />
<glyph unicode="&#xe917;" horiz-adv-x="716" d="M435.043 396.738c42.299 0 76.778-34.181 76.89-76.297 0.102-42.627-34.417-77.32-76.87-77.259-42.403 0-76.778 34.375-76.778 76.778s34.375 76.778 76.778 76.778v0z" />
<glyph unicode="&#xe918;" horiz-adv-x="716" d="M307.131 294.388c-0.081-28.265-22.996-51.15-51.264-51.185h-0.003c-28.060 0-51.124 23.279-51.042 51.482 0.082 27.957 23.238 51.062 51.185 51.001 28.251-0.111 51.112-23.033 51.124-51.297v-0.001z" />
<glyph unicode="&#xe919;" horiz-adv-x="716" d="M409.625 601.561c0.006 28.283 22.909 51.215 51.18 51.267h0.005c28.039 0.051 51.185-23.218 51.185-51.4-0.061-27.947-23.207-51.103-51.073-51.093-28.301 0.012-51.245 22.931-51.298 51.221v0.005z" />
<glyph unicode="&#xe91a;" horiz-adv-x="716" d="M460.666 473.086c-0.287-13.87-11.599-25.004-25.511-25.004-14.092 0-25.516 11.424-25.516 25.516 0 0.18 0.002 0.36 0.006 0.539v-0.027c0.42 14.332 12.049 25.593 25.992 25.152 13.893-0.312 25.036-11.648 25.036-25.587 0-0.207-0.002-0.414-0.007-0.62l0.001 0.031z" />
</font>
</defs>
</svg>
